<svg id="Layer_1" xmlns="http://www.w3.org/2000/svg" width="14.5" height="14.7"><style>.st0{fill:#fff}</style><path class="st0" d="M7.2 0C3.2 0 0 3.3 0 7.3s3.2 7.3 7.2 7.3 7.2-3.3 7.2-7.3S11.3 0 7.2 0zm0 14.3c-3.9 0-7-3.1-7-7s3.1-7 7-7 7 3.1 7 7-3.1 7-7 7z"/><path class="st0" d="M14.2 7.8c-.3.3 0 .5 0 .6 0 .1-.2 1-.3 1-.1 0-.1.3-.1.4-.4 1.3-2 2.8-2 2.8s-.3-.1 0-.4c.3-.3.2-.6.1-1-.1-.3.2-.6.3-.9.1-.3-.1-.6-.3-.8-.3-.2.1-.4.1-.5 0-.1-.1-.3-.2-.1-.1.2-.1 0-.3-.2-.3-.2-.3.1-.4.2 0 0-.3.2-.5.1s-.3.1-.7.2c-.4.1-.5-.3-.6-.5 0-.1-.2-.3-.4-.5s-.2 0-.1-.2c.2-.1.1-.5 0-.6V7c.1 0 .1 0 .1-.3-.1-.2.1-.1.1-.3s.5-.3.5-.5.2-.5.3-.6c.1-.1.3.1.5-.1.1-.2.2-.2.4-.3.2-.1.5-.3.5-.2 0 .1.1.4.3.3.2 0 .2.2.4.2s.1 0 .1-.2c-.1-.2.3-.2.3-.2.4 0 .4 0 .6-.1s.1-.2.1-.2-.1 0-.1-.2-.2-.2-.4-.1-.3 0-.4-.2c-.1-.2.1-.4.3-.5.2 0 .3-.4-.1-.3-.4.1 0-.2-.4 0-.3.2 0 .4.1.6.1.2 0 .2-.1.3 0 .1 0 .2-.1.2s-.3-.4-.4-.4c-.1 0-.4 0-.4.1s.4.1.4.2.3 0 .2.1c-.1.1 0 0 0 .1-.1.2-.1.1-.1 0-.5 0-.6-.4-.7-.3-.1.1-.2 0-.3.1 0 .4-.1.4-.1.4s.1.2-.1.5c-.4.1-.6.1-.7 0 0-.1-.1-.1-.2-.1-.2 0-.2-.5-.2-.6 0-.1.6-.1.6-.2s0-.3-.3-.3-.3-.2-.1-.2c.1 0 .3-.1.2-.2-.1 0 0-.1.2-.2s.2 0 .2-.3c-.1-.3 0-.2.4-.3.4-.1 0-.4.1-.5 0-.1 0-.3-.2-.3-.3.1-.4-.1-.5 0-.1.1.3.6.4.7-.2.3-.3-.1-.4 0-.1.1-.2-.1-.3 0 0 .1-.2-.1-.2-.2s-.1-.8-.1-.8-.2-.3.1-.3.5 0 .6-.1c.1-.1-.4-.6-.5-.5-.2 0-1-.1-.4-.1h.2C8.6.4 7.9.3 7.2.3c-.8 0-1.7.1-2.4.4-.1.1-.3.3-.2.4.1.1.2.1.3.1.1 0 .1.1.1.1-.1.1.5-.3.6 0 .2.2.4.2.3.3 0 .1 0 .4-.5.6 0 0-.4-.1-.1-.4 0 0 .2-.2-.1-.2 0 0 0 .2-.3.1-.3 0-1 .1-1 .5s.4.2.5.2c0 0 .4-.5.4-.4s.1.1.1.3.3.1.3.1.2.1-.1.5c.2.1.3.5.1.5-.1.1-.3 0-.3.1s-.4-.1-.4-.1-.2 0-.2.1.1.2.1.3c0 .2.3.2 0 .4-.2.1-.3-.4-.5-.3 0 .1 0 .2-.1.3-.2.1-.5 0-.6.1-.2.2.1.4-.2.5-.2.1-.4.2-.5.3 0 .1-.1.3-.2.3s.1.4-.1.5c-.1.1-.2 0-.1-.4 0-.1-.2-.5-.6-.4-.2.1-.4.4-.4.5-.1.1-.2.5-.1.6.1 0 .2.1.3-.1.1-.2.3 0 .2.2 0 .1-.2.3-.2.3 0 .1.4.2.3.5 0 .4-.1.6.3.8.1-.1.5-.4.7-.1.2.2.5.4.6.3.2-.1.2.2.2.2 0 .1.3.2.4.4 0 .2.5 0 .6.1.1.1.2.5.3.6 0 .2.2.4.4.3.3 0 .3.2.3.3 0 .1.2.1.4.1.2-.1.4.3.5.3.1 0 .5 0 .5.2s.1.2-.2.6c-.3.3-.4.5-.4.6.1.1.1.6-.6.6-.6 0-.3.4-.4.5-.1 0-.2.2-.4.1-.1.1-.1.2-.3.3 0 .2-.1.4 0 .5.1.1-.7-.2-.7-.4-.1-.2-.4-.6-.6-.9s-.2-.6-.3-1c-.1-.4-.3-.4-.4-.4-.1-.1-.5-.4-.6-1-.2-.5-.1-.3-.3-.6-.1-.3-.2-.3 0-.5s.1 0 .2-.3c.1-.2.1-.2 0-.5-.1-.2-.3-.1-.4-.4s0-.6-.2-.8-.4-.1-.3-.6c-.2-.2-.3-.5-.1-.7.2-.2.2-.4 0-.6s.1-.3.2-.4c.1 0 0-.3 0-.4 0 0 .1-.2.2-.5C.6 4.8.3 6 .3 7.3c0 3.9 3.1 7 7 7 3.8 0 6.9-3 7-6.8 0 .2-.1.3-.1.3zm-5-5.1c.2 0 .1.1.1.1-.1.2.1.2.1.2.3.2.2.2.1.3-.1 0 .1.2-.1.2s-.3-.1-.2-.2c.1-.2-.1-.3-.2-.3s-.2-.3.2-.3zm-2-.6c-.1 0-.5 0-.5.1s0 .4-.4.3c-.3 0-.1-.4-.1-.4s0-.1.1-.1v-.6c-.1-.1-.4-.4.1-.4 0 0 .1-.3.3-.1.2-.1.5-.2.6 0 .2.1.6.3.2.7 0 .2.1.4-.3.5zm1.5 1.3c.1-.1.1-.2 0-.3 0 0 0-.2.2-.1s.2.4 0 .5c-.2 0-.2 0-.2-.1z"/></svg>